# MagicaVoxel @ Ephtracy

# group
o 

# material
mtllib wall1.mtl
usemtl palette

# normals
vn -1 0 0
vn 1 0 0
vn 0 0 1
vn 0 0 -1
vn 0 -1 0
vn 0 1 0

# texcoords
vt 0.853516 0.5
vt 0.857422 0.5
vt 0.958984 0.5
vt 0.966797 0.5
vt 0.982422 0.5

# verts
v -2 0 0.2
v -2 0 -0.2
v -2 0.2 0.2
v -2 0.2 -0.2
v -2 1.8 0.2
v -2 1.8 -0.2
v -2 3 0.2
v -2 3 -0.2
v -2 3.9 0.2
v -2 3.9 -0.2
v -2 4 0.2
v -2 4 -0.2
v 2 0 0.2
v 2 0 -0.2
v 2 0.2 0.2
v 2 0.2 -0.2
v 2 1.8 0.2
v 2 1.8 -0.2
v 2 3 0.2
v 2 3 -0.2
v 2 3.9 0.2
v 2 3.9 -0.2
v 2 4 0.2
v 2 4 -0.2
v -2 0 0.2
v -2 0.2 0.2
v -2 1.8 0.2
v -2 3 0.2
v -2 3.9 0.2
v -2 4 0.2
v -1.9 2.4 0.2
v -1.9 2.8 0.2
v -1.8 2.4 0.2
v -1.8 2.8 0.2
v -1.8 3 0.2
v -1.8 3.1 0.2
v -1.8 3.7 0.2
v -1.7 2.8 0.2
v -1.7 3 0.2
v -1.7 3.1 0.2
v -1.7 3.3 0.2
v -1.7 3.4 0.2
v -1.7 3.7 0.2
v -1.5 3.2 0.2
v -1.5 3.3 0.2
v -1.5 3.4 0.2
v -1.3 2.3 0.2
v -1.3 2.6 0.2
v -1.2 2.3 0.2
v -1.2 2.6 0.2
v -1.2 3 0.2
v -1.2 3.2 0.2
v -1.2 3.3 0.2
v -1.2 3.7 0.2
v -1.1 2.6 0.2
v -1.1 3 0.2
v -1.1 3.7 0.2
v -0.8 2.5 0.2
v -0.8 2.9 0.2
v -0.8 3 0.2
v -0.8 3.6 0.2
v -0.7 2.5 0.2
v -0.7 2.6 0.2
v -0.7 2.7 0.2
v -0.7 2.9 0.2
v -0.7 3 0.2
v -0.7 3.1 0.2
v -0.7 3.2 0.2
v -0.7 3.6 0.2
v -0.7 3.7 0.2
v -0.2 2.5 0.2
v -0.2 2.6 0.2
v -0.2 2.7 0.2
v -0.0999999 2.3 0.2
v -0.0999999 2.5 0.2
v 2.38419e-007 2.3 0.2
v 2.38419e-007 2.6 0.2
v 2.38419e-007 3.1 0.2
v 2.38419e-007 3.2 0.2
v 2.38419e-007 3.6 0.2
v 2.38419e-007 3.7 0.2
v 0.2 2.4 0.2
v 0.2 2.5 0.2
v 0.2 3 0.2
v 0.2 3.6 0.2
v 0.3 2.5 0.2
v 0.3 3 0.2
v 0.3 3.6 0.2
v 0.6 2.4 0.2
v 0.6 2.5 0.2
v 0.6 2.6 0.2
v 0.8 2.4 0.2
v 0.8 2.5 0.2
v 0.9 2.4 0.2
v 0.9 2.5 0.2
v 0.9 2.6 0.2
v 1 2.2 0.2
v 1 2.7 0.2
v 1 3 0.2
v 1 3.6 0.2
v 1.1 2.2 0.2
v 1.1 2.7 0.2
v 1.1 3 0.2
v 1.1 3.1 0.2
v 1.1 3.6 0.2
v 1.1 3.7 0.2
v 1.2 2.9 0.2
v 1.2 3 0.2
v 1.3 3 0.2
v 1.3 3.1 0.2
v 1.5 2.7 0.2
v 1.5 2.9 0.2
v 1.6 2.7 0.2
v 1.6 2.9 0.2
v 1.6 3 0.2
v 1.6 3.1 0.2
v 1.7 3 0.2
v 1.7 3.1 0.2
v 1.7 3.3 0.2
v 1.7 3.4 0.2
v 1.7 3.6 0.2
v 1.7 3.7 0.2
v 1.8 2.9 0.2
v 1.8 3 0.2
v 1.8 3.2 0.2
v 1.8 3.3 0.2
v 1.8 3.4 0.2
v 1.8 3.6 0.2
v 1.9 3.2 0.2
v 1.9 3.4 0.2
v 2 0 0.2
v 2 0.2 0.2
v 2 1.8 0.2
v 2 3 0.2
v 2 3.9 0.2
v 2 4 0.2
v -2 0 -0.2
v -2 0.2 -0.2
v -2 1.8 -0.2
v -2 3 -0.2
v -2 3.9 -0.2
v -2 4 -0.2
v 2 0 -0.2
v 2 0.2 -0.2
v 2 1.8 -0.2
v 2 3 -0.2
v 2 3.9 -0.2
v 2 4 -0.2
v -2 0 0.2
v 2 0 0.2
v -2 0 -0.2
v 2 0 -0.2
v -2 4 0.2
v 2 4 0.2
v -2 4 -0.2
v 2 4 -0.2

# faces
f 3/5/1 2/5/1 1/5/1
f 4/5/1 2/5/1 3/5/1
f 5/4/1 4/4/1 3/4/1
f 6/4/1 4/4/1 5/4/1
f 7/3/1 6/3/1 5/3/1
f 8/3/1 6/3/1 7/3/1
f 9/4/1 8/4/1 7/4/1
f 10/4/1 8/4/1 9/4/1
f 11/5/1 10/5/1 9/5/1
f 12/5/1 10/5/1 11/5/1
f 13/5/2 14/5/2 15/5/2
f 15/5/2 14/5/2 16/5/2
f 15/4/2 16/4/2 17/4/2
f 17/4/2 16/4/2 18/4/2
f 17/3/2 18/3/2 19/3/2
f 19/3/2 18/3/2 20/3/2
f 19/4/2 20/4/2 21/4/2
f 21/4/2 20/4/2 22/4/2
f 21/5/2 22/5/2 23/5/2
f 23/5/2 22/5/2 24/5/2
f 31/3/3 28/3/3 27/3/3
f 32/3/3 28/3/3 31/3/3
f 33/3/3 31/3/3 27/3/3
f 33/2/3 32/2/3 31/2/3
f 34/3/3 28/3/3 32/3/3
f 34/2/3 32/2/3 33/2/3
f 35/4/3 29/4/3 28/4/3
f 35/3/3 28/3/3 34/3/3
f 36/4/3 29/4/3 35/4/3
f 37/4/3 29/4/3 36/4/3
f 38/3/3 34/3/3 33/3/3
f 38/2/3 35/2/3 34/2/3
f 38/2/3 36/2/3 35/2/3
f 39/2/3 36/2/3 38/2/3
f 40/1/3 37/1/3 36/1/3
f 40/2/3 36/2/3 39/2/3
f 41/1/3 37/1/3 40/1/3
f 42/1/3 37/1/3 41/1/3
f 43/4/3 29/4/3 37/4/3
f 43/1/3 37/1/3 42/1/3
f 44/4/3 40/4/3 39/4/3
f 44/4/3 41/4/3 40/4/3
f 45/1/3 42/1/3 41/1/3
f 45/4/3 41/4/3 44/4/3
f 46/4/3 43/4/3 42/4/3
f 46/1/3 42/1/3 45/1/3
f 47/3/3 33/3/3 27/3/3
f 47/3/3 39/3/3 38/3/3
f 47/3/3 38/3/3 33/3/3
f 48/3/3 39/3/3 47/3/3
f 49/3/3 47/3/3 27/3/3
f 49/2/3 48/2/3 47/2/3
f 50/3/3 39/3/3 48/3/3
f 50/2/3 48/2/3 49/2/3
f 51/4/3 44/4/3 39/4/3
f 51/3/3 39/3/3 50/3/3
f 52/1/3 45/1/3 44/1/3
f 52/4/3 44/4/3 51/4/3
f 53/4/3 46/4/3 45/4/3
f 53/1/3 45/1/3 52/1/3
f 54/4/3 43/4/3 46/4/3
f 54/4/3 46/4/3 53/4/3
f 54/4/3 29/4/3 43/4/3
f 55/3/3 50/3/3 49/3/3
f 55/2/3 51/2/3 50/2/3
f 56/1/3 53/1/3 52/1/3
f 56/2/3 51/2/3 55/2/3
f 56/1/3 52/1/3 51/1/3
f 56/1/3 54/1/3 53/1/3
f 57/4/3 29/4/3 54/4/3
f 57/1/3 54/1/3 56/1/3
f 58/3/3 56/3/3 55/3/3
f 58/3/3 55/3/3 49/3/3
f 59/3/3 56/3/3 58/3/3
f 60/4/3 57/4/3 56/4/3
f 60/3/3 56/3/3 59/3/3
f 61/4/3 57/4/3 60/4/3
f 62/2/3 59/2/3 58/2/3
f 62/3/3 58/3/3 49/3/3
f 63/2/3 59/2/3 62/2/3
f 64/2/3 59/2/3 63/2/3
f 65/1/3 61/1/3 60/1/3
f 65/2/3 59/2/3 64/2/3
f 65/1/3 60/1/3 59/1/3
f 66/1/3 61/1/3 65/1/3
f 67/1/3 61/1/3 66/1/3
f 68/1/3 61/1/3 67/1/3
f 69/4/3 57/4/3 61/4/3
f 69/1/3 61/1/3 68/1/3
f 70/4/3 29/4/3 57/4/3
f 70/4/3 57/4/3 69/4/3
f 71/3/3 63/3/3 62/3/3
f 71/3/3 62/3/3 49/3/3
f 72/2/3 64/2/3 63/2/3
f 72/3/3 63/3/3 71/3/3
f 73/3/3 65/3/3 64/3/3
f 73/2/3 64/2/3 72/2/3
f 73/3/3 66/3/3 65/3/3
f 74/3/3 49/3/3 27/3/3
f 74/3/3 71/3/3 49/3/3
f 75/2/3 72/2/3 71/2/3
f 75/3/3 71/3/3 74/3/3
f 76/3/3 74/3/3 27/3/3
f 76/2/3 75/2/3 74/2/3
f 77/3/3 73/3/3 72/3/3
f 77/2/3 75/2/3 76/2/3
f 77/2/3 72/2/3 75/2/3
f 78/1/3 68/1/3 67/1/3
f 78/4/3 67/4/3 66/4/3
f 79/4/3 69/4/3 68/4/3
f 79/1/3 68/1/3 78/1/3
f 80/1/3 70/1/3 69/1/3
f 80/4/3 69/4/3 79/4/3
f 81/4/3 29/4/3 70/4/3
f 81/1/3 70/1/3 80/1/3
f 82/3/3 77/3/3 76/3/3
f 83/3/3 77/3/3 82/3/3
f 84/4/3 78/4/3 66/4/3
f 84/3/3 77/3/3 83/3/3
f 84/3/3 73/3/3 77/3/3
f 84/3/3 66/3/3 73/3/3
f 84/4/3 81/4/3 80/4/3
f 84/4/3 80/4/3 79/4/3
f 84/4/3 79/4/3 78/4/3
f 85/4/3 81/4/3 84/4/3
f 86/2/3 83/2/3 82/2/3
f 86/1/3 84/1/3 83/1/3
f 86/1/3 85/1/3 84/1/3
f 87/1/3 85/1/3 86/1/3
f 88/4/3 81/4/3 85/4/3
f 88/1/3 85/1/3 87/1/3
f 89/3/3 82/3/3 76/3/3
f 89/2/3 86/2/3 82/2/3
f 90/3/3 87/3/3 86/3/3
f 90/2/3 86/2/3 89/2/3
f 91/3/3 87/3/3 90/3/3
f 92/3/3 89/3/3 76/3/3
f 92/3/3 90/3/3 89/3/3
f 93/1/3 91/1/3 90/1/3
f 93/3/3 90/3/3 92/3/3
f 94/3/3 92/3/3 76/3/3
f 94/2/3 93/2/3 92/2/3
f 95/1/3 91/1/3 93/1/3
f 95/2/3 93/2/3 94/2/3
f 96/3/3 87/3/3 91/3/3
f 96/1/3 91/1/3 95/1/3
f 97/3/3 95/3/3 94/3/3
f 97/3/3 76/3/3 27/3/3
f 97/3/3 96/3/3 95/3/3
f 97/3/3 94/3/3 76/3/3
f 98/3/3 87/3/3 96/3/3
f 98/3/3 96/3/3 97/3/3
f 99/4/3 88/4/3 87/4/3
f 99/3/3 87/3/3 98/3/3
f 100/4/3 81/4/3 88/4/3
f 100/4/3 88/4/3 99/4/3
f 101/3/3 97/3/3 27/3/3
f 101/2/3 98/2/3 97/2/3
f 102/1/3 99/1/3 98/1/3
f 102/2/3 98/2/3 101/2/3
f 102/1/3 100/1/3 99/1/3
f 103/1/3 100/1/3 102/1/3
f 104/1/3 100/1/3 103/1/3
f 105/4/3 81/4/3 100/4/3
f 105/1/3 100/1/3 104/1/3
f 106/4/3 29/4/3 81/4/3
f 106/4/3 81/4/3 105/4/3
f 107/3/3 102/3/3 101/3/3
f 107/3/3 103/3/3 102/3/3
f 108/2/3 104/2/3 103/2/3
f 108/3/3 103/3/3 107/3/3
f 109/1/3 108/1/3 107/1/3
f 109/2/3 104/2/3 108/2/3
f 110/4/3 105/4/3 104/4/3
f 110/2/3 104/2/3 109/2/3
f 111/3/3 107/3/3 101/3/3
f 112/1/3 109/1/3 107/1/3
f 112/3/3 107/3/3 111/3/3
f 113/3/3 111/3/3 101/3/3
f 113/2/3 112/2/3 111/2/3
f 114/1/3 109/1/3 112/1/3
f 114/2/3 112/2/3 113/2/3
f 115/4/3 110/4/3 109/4/3
f 115/1/3 109/1/3 114/1/3
f 116/4/3 105/4/3 110/4/3
f 116/4/3 110/4/3 115/4/3
f 117/1/3 115/1/3 114/1/3
f 117/2/3 116/2/3 115/2/3
f 118/4/3 105/4/3 116/4/3
f 118/2/3 116/2/3 117/2/3
f 119/4/3 105/4/3 118/4/3
f 120/4/3 105/4/3 119/4/3
f 121/1/3 106/1/3 105/1/3
f 121/4/3 105/4/3 120/4/3
f 122/4/3 29/4/3 106/4/3
f 122/1/3 106/1/3 121/1/3
f 123/1/3 117/1/3 114/1/3
f 123/3/3 114/3/3 113/3/3
f 123/1/3 118/1/3 117/1/3
f 123/1/3 119/1/3 118/1/3
f 124/1/3 119/1/3 123/1/3
f 125/1/3 119/1/3 124/1/3
f 126/4/3 120/4/3 119/4/3
f 126/1/3 119/1/3 125/1/3
f 127/1/3 121/1/3 120/1/3
f 127/4/3 120/4/3 126/4/3
f 128/4/3 122/4/3 121/4/3
f 128/1/3 121/1/3 127/1/3
f 129/1/3 126/1/3 125/1/3
f 129/4/3 125/4/3 124/4/3
f 129/1/3 127/1/3 126/1/3
f 130/4/3 128/4/3 127/4/3
f 130/1/3 127/1/3 129/1/3
f 131/5/3 26/5/3 25/5/3
f 132/4/3 27/4/3 26/4/3
f 132/5/3 26/5/3 131/5/3
f 133/3/3 101/3/3 27/3/3
f 133/4/3 27/4/3 132/4/3
f 133/3/3 113/3/3 101/3/3
f 133/3/3 124/3/3 123/3/3
f 133/3/3 123/3/3 113/3/3
f 134/4/3 130/4/3 129/4/3
f 134/3/3 124/3/3 133/3/3
f 134/4/3 129/4/3 124/4/3
f 135/4/3 128/4/3 130/4/3
f 135/4/3 130/4/3 134/4/3
f 135/5/3 30/5/3 29/5/3
f 135/4/3 122/4/3 128/4/3
f 135/4/3 29/4/3 122/4/3
f 136/5/3 30/5/3 135/5/3
f 137/5/4 138/5/4 143/5/4
f 138/4/4 139/4/4 144/4/4
f 143/5/4 138/5/4 144/5/4
f 139/3/4 140/3/4 145/3/4
f 144/4/4 139/4/4 145/4/4
f 140/4/4 141/4/4 146/4/4
f 145/3/4 140/3/4 146/3/4
f 141/5/4 142/5/4 147/5/4
f 146/4/4 141/4/4 147/4/4
f 147/5/4 142/5/4 148/5/4
f 151/5/5 150/5/5 149/5/5
f 152/5/5 150/5/5 151/5/5
f 153/5/6 154/5/6 155/5/6
f 155/5/6 154/5/6 156/5/6
