# MagicaVoxel @ Ephtracy

# group
o 

# material
mtllib wall2.mtl
usemtl palette

# normals
vn -1 0 0
vn 1 0 0
vn 0 0 1
vn 0 0 -1
vn 0 -1 0
vn 0 1 0

# texcoords
vt 0.958984 0.5
vt 0.966797 0.5
vt 0.982422 0.5

# verts
v -2 0 0.2
v -2 0 -0.2
v -2 0.2 0.2
v -2 0.2 -0.2
v -2 1.8 0.2
v -2 1.8 -0.2
v -2 3 0.2
v -2 3 -0.2
v -2 3.9 0.2
v -2 3.9 -0.2
v -2 4 0.2
v -2 4 -0.2
v 2 0 0.2
v 2 0 -0.2
v 2 0.2 0.2
v 2 0.2 -0.2
v 2 1.8 0.2
v 2 1.8 -0.2
v 2 3 0.2
v 2 3 -0.2
v 2 3.9 0.2
v 2 3.9 -0.2
v 2 4 0.2
v 2 4 -0.2
v -2 0 0.2
v -2 0.2 0.2
v -2 1.8 0.2
v -2 3 0.2
v -2 3.9 0.2
v -2 4 0.2
v 2 0 0.2
v 2 0.2 0.2
v 2 1.8 0.2
v 2 3 0.2
v 2 3.9 0.2
v 2 4 0.2
v -2 0 -0.2
v -2 0.2 -0.2
v -2 1.8 -0.2
v -2 3 -0.2
v -2 3.9 -0.2
v -2 4 -0.2
v 2 0 -0.2
v 2 0.2 -0.2
v 2 1.8 -0.2
v 2 3 -0.2
v 2 3.9 -0.2
v 2 4 -0.2
v -2 0 0.2
v 2 0 0.2
v -2 0 -0.2
v 2 0 -0.2
v -2 4 0.2
v 2 4 0.2
v -2 4 -0.2
v 2 4 -0.2

# faces
f 3/3/1 2/3/1 1/3/1
f 4/3/1 2/3/1 3/3/1
f 5/2/1 4/2/1 3/2/1
f 6/2/1 4/2/1 5/2/1
f 7/1/1 6/1/1 5/1/1
f 8/1/1 6/1/1 7/1/1
f 9/2/1 8/2/1 7/2/1
f 10/2/1 8/2/1 9/2/1
f 11/3/1 10/3/1 9/3/1
f 12/3/1 10/3/1 11/3/1
f 13/3/2 14/3/2 15/3/2
f 15/3/2 14/3/2 16/3/2
f 15/2/2 16/2/2 17/2/2
f 17/2/2 16/2/2 18/2/2
f 17/1/2 18/1/2 19/1/2
f 19/1/2 18/1/2 20/1/2
f 19/2/2 20/2/2 21/2/2
f 21/2/2 20/2/2 22/2/2
f 21/3/2 22/3/2 23/3/2
f 23/3/2 22/3/2 24/3/2
f 31/3/3 26/3/3 25/3/3
f 32/2/3 27/2/3 26/2/3
f 32/3/3 26/3/3 31/3/3
f 33/1/3 28/1/3 27/1/3
f 33/2/3 27/2/3 32/2/3
f 34/2/3 29/2/3 28/2/3
f 34/1/3 28/1/3 33/1/3
f 35/3/3 30/3/3 29/3/3
f 35/2/3 29/2/3 34/2/3
f 36/3/3 30/3/3 35/3/3
f 37/3/4 38/3/4 43/3/4
f 38/2/4 39/2/4 44/2/4
f 43/3/4 38/3/4 44/3/4
f 39/1/4 40/1/4 45/1/4
f 44/2/4 39/2/4 45/2/4
f 40/2/4 41/2/4 46/2/4
f 45/1/4 40/1/4 46/1/4
f 41/3/4 42/3/4 47/3/4
f 46/2/4 41/2/4 47/2/4
f 47/3/4 42/3/4 48/3/4
f 51/3/5 50/3/5 49/3/5
f 52/3/5 50/3/5 51/3/5
f 53/3/6 54/3/6 55/3/6
f 55/3/6 54/3/6 56/3/6
