# MagicaVoxel @ Ephtracy

# group
o 

# material
mtllib brick_ground3.mtl
usemtl palette

# normals
vn -1 0 0
vn 1 0 0
vn 0 0 1
vn 0 0 -1
vn 0 -1 0
vn 0 1 0

# texcoords
vt 0.974609 0.5
vt 0.982422 0.5
vt 0.986328 0.5
vt 0.990234 0.5
vt 0.994141 0.5

# verts
v 0 2 0
v 0 2 -2.4
v 0 2 -3.2
v 0 2.1 -0.4
v 0 2.1 -0.8
v 0 2.1 -1.6
v 0 2.1 -2
v 0 2.1 -2.4
v 0 2.2 0
v 0 2.2 -0.4
v 0 2.2 -0.8
v 0 2.2 -1.6
v 0 2.2 -2
v 0 2.2 -2.4
v 0 2.4 -2.4
v 0 2.4 -3.2
v 2.4 2.2 0
v 2.4 2.2 -0.4
v 2.4 2.2 -0.8
v 2.4 2.2 -1.6
v 2.4 2.2 -2
v 2.4 2.2 -2.4
v 2.4 2.4 0
v 2.4 2.4 -2.4
v 3.2 2 0
v 3.2 2 -3.2
v 3.2 2.4 0
v 3.2 2.4 -3.2
v 0 2 0
v 0 2.2 0
v 0.8 2.1 0
v 0.8 2.2 0
v 1.2 2.1 0
v 1.2 2.2 0
v 1.6 2.1 0
v 1.6 2.2 0
v 2.4 2 0
v 2.4 2.2 0
v 2.4 2.4 0
v 3.2 2 0
v 3.2 2.4 0
v 0 2.2 -2.4
v 0 2.4 -2.4
v 0.8 2.2 -2.4
v 1.2 2.2 -2.4
v 1.6 2.2 -2.4
v 2.4 2.2 -2.4
v 2.4 2.4 -2.4
v 0 2 -3.2
v 0 2.4 -3.2
v 3.2 2 -3.2
v 3.2 2.4 -3.2
v 0 2 0
v 2.4 2 0
v 3.2 2 0
v 0 2 -2.4
v 2.4 2 -2.4
v 0 2 -3.2
v 3.2 2 -3.2
v 0 2.2 0
v 0.8 2.2 0
v 1.2 2.2 0
v 1.6 2.2 0
v 2.4 2.2 0
v 0 2.2 -0.4
v 0.8 2.2 -0.4
v 1.6 2.2 -0.4
v 2.4 2.2 -0.4
v 0 2.2 -0.8
v 0.4 2.2 -0.8
v 0.8 2.2 -0.8
v 1.2 2.2 -0.8
v 1.6 2.2 -0.8
v 2 2.2 -0.8
v 2.4 2.2 -0.8
v 0.8 2.2 -1.2
v 1.6 2.2 -1.2
v 0 2.2 -1.6
v 0.4 2.2 -1.6
v 0.8 2.2 -1.6
v 1.2 2.2 -1.6
v 1.6 2.2 -1.6
v 2 2.2 -1.6
v 2.4 2.2 -1.6
v 0 2.2 -2
v 0.8 2.2 -2
v 1.6 2.2 -2
v 2.4 2.2 -2
v 0 2.2 -2.4
v 0.8 2.2 -2.4
v 1.2 2.2 -2.4
v 1.6 2.2 -2.4
v 2.4 2.2 -2.4
v 2.4 2.4 0
v 3.2 2.4 0
v 0 2.4 -2.4
v 2.4 2.4 -2.4
v 0 2.4 -3.2
v 3.2 2.4 -3.2

# faces
f 4/4/1 2/4/1 1/4/1
f 5/4/1 2/4/1 4/4/1
f 6/4/1 2/4/1 5/4/1
f 7/4/1 2/4/1 6/4/1
f 8/3/1 3/3/1 2/3/1
f 8/4/1 2/4/1 7/4/1
f 9/4/1 4/4/1 1/4/1
f 10/2/1 5/2/1 4/2/1
f 10/4/1 4/4/1 9/4/1
f 11/5/1 6/5/1 5/5/1
f 11/2/1 5/2/1 10/2/1
f 12/4/1 7/4/1 6/4/1
f 12/5/1 6/5/1 11/5/1
f 13/2/1 8/2/1 7/2/1
f 13/4/1 7/4/1 12/4/1
f 14/3/1 3/3/1 8/3/1
f 14/2/1 8/2/1 13/2/1
f 15/3/1 3/3/1 14/3/1
f 16/3/1 3/3/1 15/3/1
f 23/3/1 18/3/1 17/3/1
f 23/3/1 22/3/1 21/3/1
f 23/3/1 21/3/1 20/3/1
f 23/3/1 20/3/1 19/3/1
f 23/3/1 19/3/1 18/3/1
f 24/3/1 22/3/1 23/3/1
f 25/3/2 26/3/2 27/3/2
f 27/3/2 26/3/2 28/3/2
f 31/4/3 30/4/3 29/4/3
f 32/4/3 30/4/3 31/4/3
f 33/4/3 31/4/3 29/4/3
f 33/1/3 32/1/3 31/1/3
f 34/1/3 32/1/3 33/1/3
f 35/4/3 33/4/3 29/4/3
f 35/5/3 34/5/3 33/5/3
f 36/5/3 34/5/3 35/5/3
f 37/4/3 35/4/3 29/4/3
f 37/4/3 36/4/3 35/4/3
f 38/4/3 36/4/3 37/4/3
f 40/3/3 38/3/3 37/3/3
f 40/3/3 39/3/3 38/3/3
f 41/3/3 39/3/3 40/3/3
f 44/3/3 43/3/3 42/3/3
f 45/3/3 43/3/3 44/3/3
f 46/3/3 43/3/3 45/3/3
f 47/3/3 43/3/3 46/3/3
f 48/3/3 43/3/3 47/3/3
f 49/3/4 50/3/4 51/3/4
f 51/3/4 50/3/4 52/3/4
f 56/4/5 54/4/5 53/4/5
f 57/3/5 55/3/5 54/3/5
f 57/4/5 54/4/5 56/4/5
f 58/3/5 57/3/5 56/3/5
f 59/3/5 55/3/5 57/3/5
f 59/3/5 57/3/5 58/3/5
f 60/4/6 61/4/6 65/4/6
f 61/1/6 62/1/6 66/1/6
f 65/4/6 61/4/6 66/4/6
f 63/4/6 64/4/6 67/4/6
f 62/5/6 63/5/6 67/5/6
f 67/4/6 64/4/6 68/4/6
f 65/2/6 66/2/6 69/2/6
f 69/2/6 66/2/6 70/2/6
f 66/1/6 62/1/6 71/1/6
f 70/2/6 66/2/6 71/2/6
f 62/5/6 67/5/6 72/5/6
f 71/1/6 62/1/6 72/1/6
f 67/2/6 68/2/6 73/2/6
f 72/5/6 67/5/6 73/5/6
f 73/2/6 68/2/6 74/2/6
f 74/2/6 68/2/6 75/2/6
f 70/1/6 71/1/6 76/1/6
f 71/4/6 72/4/6 76/4/6
f 72/4/6 73/4/6 76/4/6
f 73/5/6 74/5/6 77/5/6
f 76/4/6 73/4/6 77/4/6
f 69/5/6 70/5/6 78/5/6
f 70/1/6 76/1/6 79/1/6
f 78/5/6 70/5/6 79/5/6
f 76/2/6 77/2/6 80/2/6
f 79/1/6 76/1/6 80/1/6
f 80/2/6 77/2/6 81/2/6
f 77/5/6 74/5/6 82/5/6
f 81/2/6 77/2/6 82/2/6
f 74/1/6 75/1/6 83/1/6
f 82/5/6 74/5/6 83/5/6
f 83/1/6 75/1/6 84/1/6
f 78/4/6 79/4/6 85/4/6
f 79/4/6 80/4/6 85/4/6
f 80/1/6 81/1/6 86/1/6
f 85/4/6 80/4/6 86/4/6
f 81/5/6 82/5/6 87/5/6
f 83/4/6 84/4/6 87/4/6
f 82/4/6 83/4/6 87/4/6
f 87/4/6 84/4/6 88/4/6
f 85/2/6 86/2/6 89/2/6
f 86/1/6 81/1/6 90/1/6
f 89/2/6 86/2/6 90/2/6
f 81/5/6 87/5/6 91/5/6
f 90/1/6 81/1/6 91/1/6
f 87/2/6 88/2/6 92/2/6
f 91/5/6 87/5/6 92/5/6
f 92/2/6 88/2/6 93/2/6
f 94/3/6 95/3/6 97/3/6
f 96/3/6 97/3/6 98/3/6
f 97/3/6 95/3/6 99/3/6
f 98/3/6 97/3/6 99/3/6
