# MagicaVoxel @ Ephtracy

# group
o 

# material
mtllib 4_45.mtl
usemtl palette

# normals
vn -1 0 0
vn 1 0 0
vn 0 0 1
vn 0 0 -1
vn 0 -1 0
vn 0 1 0

# texcoords
vt 0.181641 0.5
vt 0.185547 0.5
vt 0.974609 0.5
vt 0.986328 0.5
vt 0.990234 0.5
vt 0.994141 0.5

# verts
v -1.7 1 0.2
v -1.7 1 -0.2
v -1.7 1.2 0.2
v -1.7 1.2 -0.2
v -1.6 1 0.3
v -1.6 1 0.2
v -1.6 1 -0.2
v -1.6 1 -0.3
v -1.6 1.2 0.3
v -1.6 1.2 0.2
v -1.6 1.2 -0.2
v -1.6 1.2 -0.3
v -1.6 4.2 0.2
v -1.6 4.2 -0.2
v -1.5 1 0.4
v -1.5 1 0.3
v -1.5 1 -0.3
v -1.5 1 -0.4
v -1.5 1.2 0.4
v -1.5 1.2 0.3
v -1.5 1.2 0.2
v -1.5 1.2 -0.2
v -1.5 1.2 -0.3
v -1.5 1.2 -0.4
v -1.5 4.2 0.3
v -1.5 4.2 0.2
v -1.5 4.2 -0.2
v -1.5 4.2 -0.3
v -1.4 4.1 0.2
v -1.4 4.1 0.1
v -1.4 4.1 -0.1
v -1.4 4.1 -0.2
v -1.4 4.2 0.2
v -1.4 4.2 0.1
v -1.4 4.2 -0.1
v -1.4 4.2 -0.2
v -1.4 4.3 0.1
v -1.4 4.3 -0.1
v -1.3 4.2 0.2
v -1.3 4.2 0.1
v -1.3 4.2 -0.1
v -1.3 4.2 -0.2
v -1.3 4.3 0.2
v -1.3 4.3 0.1
v -1.3 4.3 -0.1
v -1.3 4.3 -0.2
v -0.8 4.2 0.3
v -0.8 4.2 0.2
v -0.8 4.2 -0.2
v -0.8 4.2 -0.3
v -0.8 4.3 0.3
v -0.8 4.3 0.2
v -0.8 4.3 0.1
v -0.8 4.3 -0.1
v -0.8 4.3 -0.2
v -0.8 4.3 -0.3
v -0.8 4.4 0.1
v -0.8 4.4 -0.1
v -0.7 4.3 0.3
v -0.7 4.3 0.2
v -0.7 4.3 0.1
v -0.7 4.3 -0.1
v -0.7 4.3 -0.2
v -0.7 4.3 -0.3
v -0.7 4.4 0.3
v -0.7 4.4 0.1
v -0.7 4.4 -0.1
v -0.7 4.4 -0.3
v -1.5 4.1 0.2
v -1.5 4.1 0.1
v -1.5 4.1 -0.1
v -1.5 4.1 -0.2
v -1.5 4.2 0.2
v -1.5 4.2 0.1
v -1.5 4.2 -0.1
v -1.5 4.2 -0.2
v -0.5 1 0.4
v -0.5 1 0.3
v -0.5 1 -0.3
v -0.5 1 -0.4
v -0.5 1.2 0.4
v -0.5 1.2 0.3
v -0.5 1.2 0.2
v -0.5 1.2 -0.2
v -0.5 1.2 -0.3
v -0.5 1.2 -0.4
v -0.5 4.2 0.3
v -0.5 4.2 0.2
v -0.5 4.2 -0.2
v -0.5 4.2 -0.3
v -0.5 4.3 0.3
v -0.5 4.3 0.2
v -0.5 4.3 -0.2
v -0.5 4.3 -0.3
v -0.5 4.4 0.3
v -0.5 4.4 0.2
v -0.5 4.4 -0.2
v -0.5 4.4 -0.3
v -0.4 1 0.3
v -0.4 1 0.2
v -0.4 1 -0.2
v -0.4 1 -0.3
v -0.4 1.2 0.3
v -0.4 1.2 0.2
v -0.4 1.2 -0.2
v -0.4 1.2 -0.3
v -0.4 4.2 0.2
v -0.4 4.2 -0.2
v -0.4 4.3 0.2
v -0.4 4.3 -0.2
v -0.4 4.4 0.2
v -0.4 4.4 -0.2
v -0.3 1 0.2
v -0.3 1 -0.2
v -0.3 1.2 0.2
v -0.3 1.2 -0.2
v -1.5 1 0.4
v -1.5 1.2 0.4
v -0.5 1 0.4
v -0.5 1.2 0.4
v -1.6 1 0.3
v -1.6 1.2 0.3
v -1.5 1 0.3
v -1.5 1.2 0.3
v -1.5 4.2 0.3
v -0.8 4.2 0.3
v -0.8 4.3 0.3
v -0.7 4.3 0.3
v -0.7 4.4 0.3
v -0.5 1 0.3
v -0.5 1.2 0.3
v -0.5 4.2 0.3
v -0.5 4.3 0.3
v -0.5 4.4 0.3
v -0.4 1 0.3
v -0.4 1.2 0.3
v -1.7 1 0.2
v -1.7 1.2 0.2
v -1.6 1 0.2
v -1.6 1.2 0.2
v -1.6 4.2 0.2
v -1.5 1.2 0.2
v -1.5 4.2 0.2
v -1.3 4.2 0.2
v -1.3 4.3 0.2
v -0.8 4.2 0.2
v -0.8 4.3 0.2
v -0.5 1.2 0.2
v -0.5 4.2 0.2
v -0.5 4.3 0.2
v -0.5 4.4 0.2
v -0.4 1 0.2
v -0.4 1.2 0.2
v -0.4 4.2 0.2
v -0.4 4.3 0.2
v -0.4 4.4 0.2
v -0.3 1 0.2
v -0.3 1.2 0.2
v -1.5 4.1 0.1
v -1.5 4.2 0.1
v -1.4 4.1 0.1
v -1.4 4.2 0.1
v -1.4 4.3 0.1
v -1.3 4.2 0.1
v -1.3 4.3 0.1
v -0.8 4.3 0.1
v -0.8 4.4 0.1
v -0.7 4.3 0.1
v -0.7 4.4 0.1
v -1.5 4.1 -0.2
v -1.5 4.2 -0.2
v -1.4 4.1 -0.2
v -1.4 4.2 -0.2
v -1.5 4.1 0.2
v -1.5 4.2 0.2
v -1.4 4.1 0.2
v -1.4 4.2 0.2
v -1.5 4.1 -0.1
v -1.5 4.2 -0.1
v -1.4 4.1 -0.1
v -1.4 4.2 -0.1
v -1.4 4.3 -0.1
v -1.3 4.2 -0.1
v -1.3 4.3 -0.1
v -0.8 4.3 -0.1
v -0.8 4.4 -0.1
v -0.7 4.3 -0.1
v -0.7 4.4 -0.1
v -1.7 1 -0.2
v -1.7 1.2 -0.2
v -1.6 1 -0.2
v -1.6 1.2 -0.2
v -1.6 4.2 -0.2
v -1.5 1.2 -0.2
v -1.5 4.2 -0.2
v -1.3 4.2 -0.2
v -1.3 4.3 -0.2
v -0.8 4.2 -0.2
v -0.8 4.3 -0.2
v -0.5 1.2 -0.2
v -0.5 4.2 -0.2
v -0.5 4.3 -0.2
v -0.5 4.4 -0.2
v -0.4 1 -0.2
v -0.4 1.2 -0.2
v -0.4 4.2 -0.2
v -0.4 4.3 -0.2
v -0.4 4.4 -0.2
v -0.3 1 -0.2
v -0.3 1.2 -0.2
v -1.6 1 -0.3
v -1.6 1.2 -0.3
v -1.5 1 -0.3
v -1.5 1.2 -0.3
v -1.5 4.2 -0.3
v -0.8 4.2 -0.3
v -0.8 4.3 -0.3
v -0.7 4.3 -0.3
v -0.7 4.4 -0.3
v -0.5 1 -0.3
v -0.5 1.2 -0.3
v -0.5 4.2 -0.3
v -0.5 4.3 -0.3
v -0.5 4.4 -0.3
v -0.4 1 -0.3
v -0.4 1.2 -0.3
v -1.5 1 -0.4
v -1.5 1.2 -0.4
v -0.5 1 -0.4
v -0.5 1.2 -0.4
v -1.5 1 0.4
v -0.5 1 0.4
v -1.6 1 0.3
v -1.5 1 0.3
v -0.5 1 0.3
v -0.4 1 0.3
v -1.7 1 0.2
v -1.6 1 0.2
v -0.4 1 0.2
v -0.3 1 0.2
v -1.7 1 -0.2
v -1.6 1 -0.2
v -0.4 1 -0.2
v -0.3 1 -0.2
v -1.6 1 -0.3
v -1.5 1 -0.3
v -0.5 1 -0.3
v -0.4 1 -0.3
v -1.5 1 -0.4
v -0.5 1 -0.4
v -1.5 1.2 0.4
v -0.5 1.2 0.4
v -1.6 1.2 0.3
v -1.5 1.2 0.3
v -0.5 1.2 0.3
v -0.4 1.2 0.3
v -1.7 1.2 0.2
v -1.6 1.2 0.2
v -1.5 1.2 0.2
v -0.5 1.2 0.2
v -0.4 1.2 0.2
v -0.3 1.2 0.2
v -1.7 1.2 -0.2
v -1.6 1.2 -0.2
v -1.5 1.2 -0.2
v -0.5 1.2 -0.2
v -0.4 1.2 -0.2
v -0.3 1.2 -0.2
v -1.6 1.2 -0.3
v -1.5 1.2 -0.3
v -0.5 1.2 -0.3
v -0.4 1.2 -0.3
v -1.5 1.2 -0.4
v -0.5 1.2 -0.4
v -1.5 4.1 0.2
v -1.4 4.1 0.2
v -1.5 4.1 0.1
v -1.4 4.1 0.1
v -1.5 4.1 -0.1
v -1.4 4.1 -0.1
v -1.5 4.1 -0.2
v -1.4 4.1 -0.2
v -1.5 4.2 0.3
v -0.8 4.2 0.3
v -1.6 4.2 0.2
v -1.5 4.2 0.2
v -1.4 4.2 0.2
v -1.3 4.2 0.2
v -0.8 4.2 0.2
v -1.5 4.2 0.1
v -1.4 4.2 0.1
v -1.3 4.2 0.1
v -1.5 4.2 -0.1
v -1.4 4.2 -0.1
v -1.3 4.2 -0.1
v -1.6 4.2 -0.2
v -1.5 4.2 -0.2
v -1.4 4.2 -0.2
v -1.3 4.2 -0.2
v -0.8 4.2 -0.2
v -1.5 4.2 -0.3
v -0.8 4.2 -0.3
v -0.8 4.3 0.3
v -0.7 4.3 0.3
v -1.3 4.3 0.2
v -0.8 4.3 0.2
v -0.7 4.3 0.2
v -1.4 4.3 0.1
v -1.3 4.3 0.1
v -0.8 4.3 0.1
v -0.7 4.3 0.1
v -1.4 4.3 -0.1
v -1.3 4.3 -0.1
v -0.8 4.3 -0.1
v -0.7 4.3 -0.1
v -1.3 4.3 -0.2
v -0.8 4.3 -0.2
v -0.7 4.3 -0.2
v -0.8 4.3 -0.3
v -0.7 4.3 -0.3
v -0.7 4.4 0.3
v -0.5 4.4 0.3
v -0.5 4.4 0.2
v -0.4 4.4 0.2
v -0.8 4.4 0.1
v -0.7 4.4 0.1
v -0.8 4.4 -0.1
v -0.7 4.4 -0.1
v -0.5 4.4 -0.2
v -0.4 4.4 -0.2
v -0.7 4.4 -0.3
v -0.5 4.4 -0.3

# faces
f 3/4/1 2/4/1 1/4/1
f 4/4/1 2/4/1 3/4/1
f 9/4/1 6/4/1 5/4/1
f 10/4/1 6/4/1 9/4/1
f 11/4/1 8/4/1 7/4/1
f 12/4/1 8/4/1 11/4/1
f 13/4/1 11/4/1 10/4/1
f 14/4/1 11/4/1 13/4/1
f 19/4/1 16/4/1 15/4/1
f 20/4/1 16/4/1 19/4/1
f 23/4/1 18/4/1 17/4/1
f 24/4/1 18/4/1 23/4/1
f 25/4/1 21/4/1 20/4/1
f 26/4/1 21/4/1 25/4/1
f 27/4/1 23/4/1 22/4/1
f 28/4/1 23/4/1 27/4/1
f 33/2/1 30/2/1 29/2/1
f 34/2/1 30/2/1 33/2/1
f 35/2/1 32/2/1 31/2/1
f 36/2/1 32/2/1 35/2/1
f 37/2/1 35/2/1 34/2/1
f 38/2/1 35/2/1 37/2/1
f 43/1/1 40/1/1 39/1/1
f 44/1/1 40/1/1 43/1/1
f 45/1/1 42/1/1 41/1/1
f 46/1/1 42/1/1 45/1/1
f 51/6/1 48/6/1 47/6/1
f 52/6/1 48/6/1 51/6/1
f 55/6/1 50/6/1 49/6/1
f 56/6/1 50/6/1 55/6/1
f 57/4/1 54/4/1 53/4/1
f 58/4/1 54/4/1 57/4/1
f 65/4/1 60/4/1 59/4/1
f 65/4/1 61/4/1 60/4/1
f 66/4/1 61/4/1 65/4/1
f 67/4/1 64/4/1 63/4/1
f 67/4/1 63/4/1 62/4/1
f 68/4/1 64/4/1 67/4/1
f 69/4/2 70/4/2 73/4/2
f 73/4/2 70/4/2 74/4/2
f 71/4/2 72/4/2 75/4/2
f 75/4/2 72/4/2 76/4/2
f 77/4/2 78/4/2 81/4/2
f 81/4/2 78/4/2 82/4/2
f 79/4/2 80/4/2 85/4/2
f 85/4/2 80/4/2 86/4/2
f 82/4/2 83/4/2 87/4/2
f 87/4/2 83/4/2 88/4/2
f 84/4/2 85/4/2 89/4/2
f 89/4/2 85/4/2 90/4/2
f 87/6/2 88/6/2 91/6/2
f 91/6/2 88/6/2 92/6/2
f 89/6/2 90/6/2 93/6/2
f 93/6/2 90/6/2 94/6/2
f 91/4/2 92/4/2 95/4/2
f 95/4/2 92/4/2 96/4/2
f 93/4/2 94/4/2 97/4/2
f 97/4/2 94/4/2 98/4/2
f 99/4/2 100/4/2 103/4/2
f 103/4/2 100/4/2 104/4/2
f 101/4/2 102/4/2 105/4/2
f 105/4/2 102/4/2 106/4/2
f 104/4/2 105/4/2 107/4/2
f 107/4/2 105/4/2 108/4/2
f 107/6/2 108/6/2 109/6/2
f 109/6/2 108/6/2 110/6/2
f 109/4/2 110/4/2 111/4/2
f 111/4/2 110/4/2 112/4/2
f 113/4/2 114/4/2 115/4/2
f 115/4/2 114/4/2 116/4/2
f 119/4/3 118/4/3 117/4/3
f 120/4/3 118/4/3 119/4/3
f 123/4/3 122/4/3 121/4/3
f 124/4/3 122/4/3 123/4/3
f 126/4/3 125/4/3 124/4/3
f 128/6/3 127/6/3 126/6/3
f 131/4/3 126/4/3 124/4/3
f 132/6/3 128/6/3 126/6/3
f 132/4/3 126/4/3 131/4/3
f 133/4/3 129/4/3 128/4/3
f 133/6/3 128/6/3 132/6/3
f 134/4/3 129/4/3 133/4/3
f 135/4/3 131/4/3 130/4/3
f 136/4/3 131/4/3 135/4/3
f 139/4/3 138/4/3 137/4/3
f 140/4/3 138/4/3 139/4/3
f 142/4/3 141/4/3 140/4/3
f 143/4/3 141/4/3 142/4/3
f 146/1/3 145/1/3 144/1/3
f 147/1/3 145/1/3 146/1/3
f 153/4/3 149/4/3 148/4/3
f 154/6/3 150/6/3 149/6/3
f 154/4/3 149/4/3 153/4/3
f 155/4/3 151/4/3 150/4/3
f 155/6/3 150/6/3 154/6/3
f 156/4/3 151/4/3 155/4/3
f 157/4/3 153/4/3 152/4/3
f 158/4/3 153/4/3 157/4/3
f 161/2/3 160/2/3 159/2/3
f 162/2/3 160/2/3 161/2/3
f 164/2/3 163/2/3 162/2/3
f 165/2/3 163/2/3 164/2/3
f 168/4/3 167/4/3 166/4/3
f 169/4/3 167/4/3 168/4/3
f 172/4/3 171/4/3 170/4/3
f 173/4/3 171/4/3 172/4/3
f 174/4/4 175/4/4 176/4/4
f 176/4/4 175/4/4 177/4/4
f 178/2/4 179/2/4 180/2/4
f 180/2/4 179/2/4 181/2/4
f 181/2/4 182/2/4 183/2/4
f 183/2/4 182/2/4 184/2/4
f 185/4/4 186/4/4 187/4/4
f 187/4/4 186/4/4 188/4/4
f 189/4/4 190/4/4 191/4/4
f 191/4/4 190/4/4 192/4/4
f 192/4/4 193/4/4 194/4/4
f 194/4/4 193/4/4 195/4/4
f 196/1/4 197/1/4 198/1/4
f 198/1/4 197/1/4 199/1/4
f 200/4/4 201/4/4 205/4/4
f 201/6/4 202/6/4 206/6/4
f 205/4/4 201/4/4 206/4/4
f 202/4/4 203/4/4 207/4/4
f 206/6/4 202/6/4 207/6/4
f 207/4/4 203/4/4 208/4/4
f 204/4/4 205/4/4 209/4/4
f 209/4/4 205/4/4 210/4/4
f 211/4/4 212/4/4 213/4/4
f 213/4/4 212/4/4 214/4/4
f 214/4/4 215/4/4 216/4/4
f 216/6/4 217/6/4 218/6/4
f 214/4/4 216/4/4 221/4/4
f 216/6/4 218/6/4 222/6/4
f 221/4/4 216/4/4 222/4/4
f 218/4/4 219/4/4 223/4/4
f 222/6/4 218/6/4 223/6/4
f 223/4/4 219/4/4 224/4/4
f 220/4/4 221/4/4 225/4/4
f 225/4/4 221/4/4 226/4/4
f 227/4/4 228/4/4 229/4/4
f 229/4/4 228/4/4 230/4/4
f 234/4/5 232/4/5 231/4/5
f 235/4/5 232/4/5 234/4/5
f 238/4/5 234/4/5 233/4/5
f 238/4/5 236/4/5 235/4/5
f 238/4/5 235/4/5 234/4/5
f 239/4/5 236/4/5 238/4/5
f 241/4/5 238/4/5 237/4/5
f 241/4/5 240/4/5 239/4/5
f 241/4/5 239/4/5 238/4/5
f 242/4/5 240/4/5 241/4/5
f 243/4/5 240/4/5 242/4/5
f 244/4/5 240/4/5 243/4/5
f 245/4/5 243/4/5 242/4/5
f 246/4/5 243/4/5 245/4/5
f 247/4/5 243/4/5 246/4/5
f 248/4/5 243/4/5 247/4/5
f 249/4/5 247/4/5 246/4/5
f 250/4/5 247/4/5 249/4/5
f 251/4/6 252/4/6 254/4/6
f 254/4/6 252/4/6 255/4/6
f 253/4/6 254/4/6 258/4/6
f 258/4/6 254/4/6 259/4/6
f 255/4/6 256/4/6 260/4/6
f 260/4/6 256/4/6 261/4/6
f 257/4/6 258/4/6 263/4/6
f 263/4/6 258/4/6 264/4/6
f 261/4/6 262/4/6 267/4/6
f 267/4/6 262/4/6 268/4/6
f 264/4/6 265/4/6 269/4/6
f 269/4/6 265/4/6 270/4/6
f 266/4/6 267/4/6 271/4/6
f 271/4/6 267/4/6 272/4/6
f 270/4/6 271/4/6 273/4/6
f 273/4/6 271/4/6 274/4/6
f 275/2/6 276/2/6 277/2/6
f 277/2/6 276/2/6 278/2/6
f 279/2/6 280/2/6 281/2/6
f 281/2/6 280/2/6 282/2/6
f 283/4/6 284/4/6 286/4/6
f 286/4/6 284/4/6 287/4/6
f 287/4/6 284/4/6 288/4/6
f 288/4/6 284/4/6 289/4/6
f 285/4/6 286/4/6 290/4/6
f 287/2/6 288/2/6 291/2/6
f 291/2/6 288/2/6 292/2/6
f 285/4/6 290/4/6 293/4/6
f 290/2/6 291/2/6 293/2/6
f 293/2/6 291/2/6 294/2/6
f 285/4/6 293/4/6 296/4/6
f 296/4/6 293/4/6 297/4/6
f 294/2/6 295/2/6 298/2/6
f 298/2/6 295/2/6 299/2/6
f 298/4/6 299/4/6 301/4/6
f 299/4/6 300/4/6 301/4/6
f 297/4/6 298/4/6 301/4/6
f 301/4/6 300/4/6 302/4/6
f 303/6/6 304/6/6 306/6/6
f 306/6/6 304/6/6 307/6/6
f 305/1/6 306/1/6 309/1/6
f 306/1/6 307/1/6 309/1/6
f 309/1/6 307/1/6 310/1/6
f 310/1/6 307/1/6 311/1/6
f 308/2/6 309/2/6 312/2/6
f 309/1/6 310/1/6 313/1/6
f 312/2/6 309/2/6 313/2/6
f 313/1/6 310/1/6 314/1/6
f 314/1/6 315/1/6 316/1/6
f 313/1/6 314/1/6 316/1/6
f 316/1/6 315/1/6 317/1/6
f 317/1/6 315/1/6 318/1/6
f 317/6/6 318/6/6 319/6/6
f 319/6/6 318/6/6 320/6/6
f 321/4/6 322/4/6 323/4/6
f 321/4/6 323/4/6 326/4/6
f 323/4/6 324/4/6 326/4/6
f 325/4/6 326/4/6 327/4/6
f 326/4/6 324/4/6 328/4/6
f 327/4/6 326/4/6 328/4/6
f 328/4/6 324/4/6 329/4/6
f 329/4/6 324/4/6 330/4/6
f 328/4/6 329/4/6 331/4/6
f 331/4/6 329/4/6 332/4/6
